<svg width="58" height="41" viewBox="0 0 58 41" fill="none" xmlns="http://www.w3.org/2000/svg">
<path d="M49.1884 29.7068C48.3294 29.7065 47.4969 29.9776 46.8326 30.4739C46.1684 30.9702 45.7136 31.661 45.5457 32.4286C45.3778 33.1962 45.5073 33.9932 45.9119 34.6836C46.3166 35.374 46.9715 35.9152 47.765 36.2149C48.5585 36.5147 49.4415 36.5545 50.2636 36.3275C51.0857 36.1006 51.796 35.6209 52.2734 34.9702C52.7509 34.3196 52.9659 33.5382 52.882 32.7592C52.798 31.9803 52.4203 31.2519 51.813 30.6983C51.4685 30.3841 51.0593 30.1348 50.609 29.9646C50.1586 29.7945 49.6759 29.7069 49.1884 29.7068ZM49.1884 34.7583C48.8264 34.7589 48.4724 34.6616 48.1711 34.4788C47.8699 34.2959 47.6349 34.0358 47.4959 33.7312C47.357 33.4267 47.3203 33.0914 47.3905 32.7679C47.4608 32.4443 47.6347 32.147 47.8905 31.9136C48.1462 31.6802 48.4722 31.5211 48.8272 31.4565C49.1821 31.392 49.5501 31.4249 49.8846 31.5509C50.2191 31.677 50.505 31.8907 50.7062 32.1649C50.9073 32.4391 51.0147 32.7615 51.0147 33.0913C51.0151 33.3101 50.9682 33.5268 50.8766 33.729C50.785 33.9312 50.6505 34.115 50.4809 34.2698C50.3113 34.4247 50.1098 34.5475 49.888 34.6313C49.6662 34.7151 49.4285 34.7583 49.1884 34.7583ZM3.37543 12.3875V16.6033C3.37749 16.8305 3.47745 17.0478 3.65375 17.2085C3.83005 17.3691 4.06857 17.4602 4.31789 17.4621H9.32796C6.48896 19.4773 4.22039 22.0823 2.71174 25.0595H0.939289C0.690303 25.0599 0.45163 25.1502 0.275569 25.3106C0.099509 25.471 0.00041882 25.6885 2.20409e-09 25.9153V31.1313C-1.70222e-05 31.3592 0.0985892 31.578 0.274429 31.7401C0.450268 31.9022 0.68916 31.9946 0.939289 31.9973H8.90662C8.73199 33.0024 8.79858 34.0301 9.1018 35.0095C9.40501 35.9889 9.93765 36.8968 10.663 37.6706C11.3884 38.4444 12.2892 39.0657 13.3035 39.4918C14.3177 39.9178 15.4213 40.1384 16.5382 40.1384C17.655 40.1384 18.7586 39.9178 19.7728 39.4918C20.7871 39.0657 21.6879 38.4444 22.4133 37.6706C23.1387 36.8968 23.6713 35.9889 23.9745 35.0095C24.2777 34.0301 24.3443 33.0024 24.1697 31.9973H32.0737C36.5579 31.9973 39.7274 31.5297 42.0099 30.4934C41.5247 31.6098 41.3611 32.8207 41.5345 34.0109C41.7078 35.2012 42.2125 36.3312 43.0004 37.2936C43.7883 38.256 44.8334 39.0188 46.0361 39.5094C47.2388 39.9999 48.5593 40.202 49.8719 40.0964C51.1846 39.9907 52.4457 39.5809 53.5355 38.9058C54.6252 38.2308 55.5073 37.3129 56.0979 36.2396C56.6885 35.1662 56.968 33.9731 56.9097 32.7735C56.8515 31.574 56.4574 30.408 55.765 29.3864H57.0433C57.2842 29.3871 57.5162 29.3032 57.6911 29.1522C57.866 29.0011 57.9703 28.7945 57.9826 28.5753C57.9936 28.4021 58 28.2303 58 28.0629C57.9962 25.6234 56.9307 23.2848 55.037 21.5602C53.1434 19.8356 50.5764 18.8658 47.8991 18.8635C47.7217 18.8633 47.5446 18.8725 47.3684 18.8909C47.3779 16.3493 47.1926 13.3848 46.9804 9.93251C46.9487 9.43314 46.917 8.9222 46.8853 8.40262H47.1799C47.9084 8.40262 48.607 8.13897 49.1221 7.66964C49.6372 7.2003 49.9265 6.56375 49.9265 5.90001V2.64252C49.9267 2.31375 49.8558 1.98815 49.7179 1.68435C49.58 1.38055 49.3777 1.10448 49.1226 0.87194C48.8676 0.639395 48.5647 0.45495 48.2314 0.329091C47.898 0.203231 47.5408 0.138428 47.1799 0.138428H40.757C40.3964 0.138428 40.0393 0.203198 39.7061 0.328985C39.373 0.454772 39.0703 0.639107 38.8154 0.871517C38.5605 1.10393 38.3583 1.37984 38.2204 1.68347C38.0826 1.98709 38.0117 2.3125 38.012 2.64108V3.63118L35.0594 4.35282C34.9331 4.38304 34.8151 4.43719 34.7133 4.51181C34.6115 4.58642 34.5281 4.67981 34.4686 4.7858C34.4085 4.89261 34.3738 5.00974 34.3667 5.1296C34.3596 5.24946 34.3803 5.36935 34.4274 5.48143L35.5362 8.088C35.606 8.24848 35.7268 8.3863 35.8832 8.48377C36.0395 8.58124 36.2243 8.63391 36.4137 8.635C36.5061 8.63509 36.598 8.62244 36.6862 8.59748L39.1492 7.91337C39.4654 8.12052 39.8259 8.2646 40.2073 8.33624C40.5241 13.2289 40.7364 17.9586 40.1218 22.1744C39.9444 23.3925 39.295 25.5372 36.9428 26.1924C35.4653 26.5447 33.9347 26.6758 32.4111 26.5807V17.4693H33.3408C33.4643 17.4695 33.5865 17.4475 33.7005 17.4045C33.8146 17.3616 33.9182 17.2985 34.0055 17.219C34.0928 17.1395 34.1619 17.0451 34.2091 16.9412C34.2562 16.8372 34.2803 16.7259 34.2801 16.6134V12.3024C34.2801 12.0754 34.1812 11.8577 34.005 11.6972C33.8289 11.5367 33.59 11.4465 33.3408 11.4465H4.39708C4.12612 11.4465 3.86626 11.5446 3.67466 11.7192C3.48306 11.8937 3.37543 12.1305 3.37543 12.3774V12.3875ZM39.8905 2.64975C39.8905 2.44048 39.9816 2.23974 40.1437 2.0915C40.3058 1.94326 40.5257 1.8596 40.7554 1.85884H47.1688C47.3981 1.86036 47.6174 1.9443 47.7791 2.09242C47.9408 2.24054 48.0317 2.44085 48.0321 2.64975V5.90575C48.0321 6.11476 47.9413 6.3153 47.7796 6.4635C47.6178 6.6117 47.3982 6.69555 47.1688 6.6967H43.4972C43.7011 6.58686 43.8521 6.41094 43.9199 6.20413C43.9878 5.99732 43.9675 5.77479 43.8631 5.58101L42.5959 3.21983C42.4981 3.04231 42.3363 2.90082 42.1376 2.81909C41.9389 2.73737 41.7154 2.72038 41.5046 2.77096L39.8842 3.16931L39.8905 2.64975ZM36.5563 5.7672L41.2512 4.61258L41.6915 5.43669L36.9713 6.75008L36.5563 5.7672ZM5.254 13.1654H32.3984V15.7633H5.25717L5.254 13.1654ZM12.6622 17.4693H30.5277V30.2812H26.2368C26.9518 29.6223 27.5151 28.8399 27.8937 27.9799C28.2723 27.1198 28.4586 26.1996 28.4416 25.2731C28.4416 21.6562 25.524 19.4076 20.8386 19.4076C17.5093 19.4762 14.3224 20.6518 11.8781 22.7127C9.44996 24.6451 7.93245 27.3557 7.64104 30.2812H6.09667C6.28177 29.9075 6.37735 29.502 6.37704 29.092V27.9677C6.3768 27.4321 6.2139 26.9069 5.90638 26.4505C5.59887 25.994 5.15873 25.624 4.63468 25.3813C6.40637 22.0861 9.19809 19.3356 12.6654 17.4693H12.6622ZM18.3645 33.0884C18.3645 33.5305 18.1717 33.9545 17.8286 34.2671C17.4855 34.5797 17.0202 34.7554 16.535 34.7554C16.0498 34.7554 15.5844 34.5797 15.2414 34.2671C14.8983 33.9545 14.7055 33.5305 14.7055 33.0884C14.7043 32.6871 14.8637 32.2992 15.1538 31.9973H17.9146C18.2052 32.2991 18.3651 32.687 18.3645 33.0884ZM9.51803 30.2827C10.0772 24.983 15.7398 21.1208 20.8307 21.1208C24.4738 21.1208 26.5599 22.6333 26.5599 25.2731C26.5599 27.9128 24.6908 30.0157 22.1074 30.2812L9.51803 30.2827ZM1.88175 30.2827V26.7784H3.18852C3.53468 26.7784 3.86665 26.9037 4.11142 27.1267C4.35619 27.3497 4.4937 27.6523 4.4937 27.9677V29.0934C4.49391 29.2497 4.46029 29.4044 4.39477 29.5488C4.32926 29.6931 4.23312 29.8243 4.11189 29.9348C3.99065 30.0452 3.84668 30.1329 3.68824 30.1926C3.52979 30.2523 3.35998 30.2829 3.18852 30.2827H1.88175ZM22.3862 33.0884C22.388 33.835 22.2175 34.5737 21.8857 35.2564C21.5539 35.9391 21.0683 36.5506 20.4604 37.0513C19.8525 37.5519 19.1358 37.9305 18.3569 38.1624C17.578 38.3943 16.7543 38.4745 15.9393 38.3975C15.1242 38.3206 14.336 38.0884 13.6258 37.716C12.9156 37.3435 12.2993 36.8392 11.8168 36.2356C11.3344 35.6321 10.9967 34.9429 10.8255 34.2127C10.6543 33.4826 10.6535 32.7277 10.8232 31.9973H13.0408C12.8485 32.5063 12.7924 33.0499 12.8773 33.5827C12.9621 34.1155 13.1854 34.6221 13.5285 35.0604C13.8717 35.4987 14.3247 35.8559 14.85 36.1024C15.3753 36.3489 15.9576 36.4775 16.5485 36.4775C17.1393 36.4775 17.7216 36.3489 18.2469 36.1024C18.7722 35.8559 19.2253 35.4987 19.5684 35.0604C19.9115 34.6221 20.1348 34.1155 20.2197 33.5827C20.3045 33.0499 20.2484 32.5063 20.0561 31.9973H22.2737C22.3547 32.3563 22.3956 32.7219 22.3957 33.0884H22.3862ZM32.4111 28.3054C34.1223 28.4025 35.8396 28.2456 37.4956 27.8407C39.946 27.1566 41.5838 25.1749 41.9845 22.4096C42.6181 18.0928 42.417 13.3242 42.0938 8.39973H44.9909C45.0257 8.95106 45.0574 9.49518 45.0923 10.0263C45.6657 19.2993 46.0141 24.892 43.0775 27.7006C41.248 29.447 37.9359 30.2553 32.4111 30.287V28.3054ZM55.0411 33.087C55.0414 33.9593 54.8066 34.8184 54.3573 35.5888C53.9079 36.3591 53.2579 37.0171 52.4641 37.5049C51.6704 37.9928 50.7574 38.2955 49.8052 38.3866C48.853 38.4777 47.8909 38.3543 47.0033 38.0273C46.1157 37.7003 45.3298 37.1797 44.7147 36.5112C44.0995 35.8427 43.674 35.0468 43.4754 34.1934C43.2769 33.34 43.3114 32.4552 43.5759 31.6168C43.8404 30.7784 44.3269 30.012 44.9925 29.385H53.4318L53.416 29.3979C54.462 30.3886 55.0447 31.7108 55.0411 33.0855V33.087ZM45.4677 27.6761C46.6794 25.9081 47.191 23.5989 47.3288 20.6214C47.5169 20.5898 47.7078 20.5738 47.8991 20.5738C50.0047 20.5769 52.0291 21.3147 53.5562 22.6357C55.0834 23.9566 55.9973 25.7603 56.1103 27.6761H45.4677ZM15.8808 24.2527C15.8808 24.0257 15.9798 23.808 16.1559 23.6475C16.3321 23.487 16.571 23.3968 16.8201 23.3968H23.327C23.5761 23.3968 23.8151 23.487 23.9912 23.6475C24.1674 23.808 24.2663 24.0257 24.2663 24.2527C24.2663 24.4797 24.1674 24.6974 23.9912 24.8579C23.8151 25.0184 23.5761 25.1085 23.327 25.1085H16.8185C16.6952 25.1085 16.5732 25.0864 16.4593 25.0434C16.3454 25.0004 16.242 24.9373 16.1549 24.8578C16.0678 24.7783 15.9988 24.6839 15.9517 24.5801C15.9047 24.4763 15.8806 24.365 15.8808 24.2527ZM23.3254 27.9965H13.8407C13.5916 27.9965 13.3526 27.9064 13.1765 27.7459C13.0003 27.5854 12.9014 27.3677 12.9014 27.1407C12.9014 26.9137 13.0003 26.696 13.1765 26.5355C13.3526 26.375 13.5916 26.2848 13.8407 26.2848H23.3239C23.573 26.2848 23.8119 26.375 23.988 26.5355C24.1642 26.696 24.2632 26.9137 24.2632 27.1407C24.2632 27.3677 24.1642 27.5854 23.988 27.7459C23.8119 27.9064 23.573 27.9965 23.3239 27.9965H23.3254Z" fill="white"/>
</svg>
